<svg width="28" height="28" viewBox="0 0 28 28" fill="none" xmlns="http://www.w3.org/2000/svg">
    <path d="M13.646 27.1533C21.1026 27.1533 27.146 21.11 27.146 13.6533C27.146 6.19668 21.1026 0.15332 13.646 0.15332C6.18936 0.15332 0.145996 6.19668 0.145996 13.6533C0.145996 21.11 6.18936 27.1533 13.646 27.1533ZM11.5366 17.8721H12.8022V14.4971H11.5366C10.8353 14.4971 10.271 13.9328 10.271 13.2314C10.271 12.5301 10.8353 11.9658 11.5366 11.9658H14.0679C14.7692 11.9658 15.3335 12.5301 15.3335 13.2314V17.8721H15.7554C16.4567 17.8721 17.021 18.4363 17.021 19.1377C17.021 19.8391 16.4567 20.4033 15.7554 20.4033H11.5366C10.8353 20.4033 10.271 19.8391 10.271 19.1377C10.271 18.4363 10.8353 17.8721 11.5366 17.8721ZM13.646 10.2783C12.7126 10.2783 11.9585 9.52422 11.9585 8.59082C11.9585 7.65742 12.7126 6.90332 13.646 6.90332C14.5794 6.90332 15.3335 7.65742 15.3335 8.59082C15.3335 9.52422 14.5794 10.2783 13.646 10.2783Z" fill="#7367F0"/>
</svg>
