<svg width="68" height="68" viewBox="0 0 68 68" fill="none" xmlns="http://www.w3.org/2000/svg">
<g clip-path="url(#clip0_315_2940)">
<path d="M62.6828 3.79097C59.8169 0.925146 55.1845 0.925146 52.3187 3.79097L48.3798 7.71675L61.191 20.5279L65.1298 16.589C67.9957 13.7232 67.9957 9.09077 65.1298 6.22495L62.6828 3.79097ZM23.5296 32.58C22.7314 33.3783 22.1164 34.3597 21.763 35.4459L17.8896 47.0662C17.5101 48.1916 17.8111 49.4347 18.6486 50.2853C19.4861 51.1359 20.7292 51.4238 21.8677 51.0443L33.488 47.1709C34.5611 46.8044 35.5425 46.2025 36.3539 45.4043L58.2466 23.4984L45.4224 10.6742L23.5296 32.58V32.58ZM13.532 9.32632C6.59644 9.32632 0.969482 14.9533 0.969482 21.8888V55.3888C0.969482 62.3244 6.59644 67.9513 13.532 67.9513H47.032C53.9675 67.9513 59.5945 62.3244 59.5945 55.3888V42.8263C59.5945 40.5101 57.7232 38.6388 55.407 38.6388C53.0908 38.6388 51.2195 40.5101 51.2195 42.8263V55.3888C51.2195 57.705 49.3482 59.5763 47.032 59.5763H13.532C11.2158 59.5763 9.34448 57.705 9.34448 55.3888V21.8888C9.34448 19.5726 11.2158 17.7013 13.532 17.7013H26.0945C28.4107 17.7013 30.282 15.83 30.282 13.5138C30.282 11.1976 28.4107 9.32632 26.0945 9.32632H13.532Z" fill="#8075F1"/>
</g>
<defs>
<clipPath id="clip0_315_2940">
<rect width="67" height="67" fill="white" transform="translate(0.969482 0.951172)"/>
</clipPath>
</defs>
</svg>
